<svg width="70" height="36" viewBox="0 0 70 36" fill="none" xmlns="http://www.w3.org/2000/svg">
<rect width="70" height="36" rx="18" fill="#474747"/>
<rect x="38" y="4" width="28" height="28" rx="14" fill="#919191"/>
<path d="M51.9998 14.6667C51.1158 14.6667 50.2679 15.0179 49.6428 15.6431C49.0177 16.2682 48.6665 17.116 48.6665 18.0001C48.6665 18.8841 49.0177 19.732 49.6428 20.3571C50.2679 20.9822 51.1158 21.3334 51.9998 21.3334C52.8839 21.3334 53.7317 20.9822 54.3569 20.3571C54.982 19.732 55.3332 18.8841 55.3332 18.0001C55.3332 17.116 54.982 16.2682 54.3569 15.6431C53.7317 15.0179 52.8839 14.6667 51.9998 14.6667Z" fill="white"/>
<path fill-rule="evenodd" clip-rule="evenodd" d="M52.0001 10.6667C52.1769 10.6667 52.3465 10.737 52.4715 10.862C52.5965 10.987 52.6667 11.1566 52.6667 11.3334V12.0001C52.6667 12.1769 52.5965 12.3465 52.4715 12.4715C52.3465 12.5965 52.1769 12.6667 52.0001 12.6667C51.8233 12.6667 51.6537 12.5965 51.5287 12.4715C51.4037 12.3465 51.3334 12.1769 51.3334 12.0001V11.3334C51.3334 11.1566 51.4037 10.987 51.5287 10.862C51.6537 10.737 51.8233 10.6667 52.0001 10.6667ZM46.1954 12.1954C46.3204 12.0704 46.49 12.0002 46.6667 12.0002C46.8435 12.0002 47.0131 12.0704 47.1381 12.1954L48.1381 13.1954C48.2595 13.3211 48.3267 13.4896 48.3252 13.6643C48.3237 13.8391 48.2536 14.0064 48.13 14.13C48.0064 14.2536 47.8391 14.3237 47.6643 14.3252C47.4896 14.3267 47.3211 14.2595 47.1954 14.1381L46.1954 13.1381C46.0704 13.0131 46.0002 12.8435 46.0002 12.6667C46.0002 12.49 46.0704 12.3204 46.1954 12.1954ZM57.8047 12.1954C57.9297 12.3204 57.9999 12.49 57.9999 12.6667C57.9999 12.8435 57.9297 13.0131 57.8047 13.1381L56.8047 14.1381C56.7432 14.2018 56.6697 14.2525 56.5884 14.2875C56.507 14.3224 56.4195 14.3408 56.331 14.3416C56.2425 14.3424 56.1547 14.3255 56.0728 14.292C55.9908 14.2584 55.9164 14.2089 55.8538 14.1463C55.7912 14.0837 55.7417 14.0093 55.7082 13.9274C55.6747 13.8455 55.6578 13.7577 55.6586 13.6691C55.6593 13.5806 55.6777 13.4931 55.7127 13.4118C55.7476 13.3305 55.7984 13.2569 55.8621 13.1954L56.8621 12.1954C56.9871 12.0704 57.1566 12.0002 57.3334 12.0002C57.5102 12.0002 57.6797 12.0704 57.8047 12.1954ZM44.6667 18.0001C44.6667 17.8233 44.737 17.6537 44.862 17.5287C44.987 17.4037 45.1566 17.3334 45.3334 17.3334H46.0001C46.1769 17.3334 46.3465 17.4037 46.4715 17.5287C46.5965 17.6537 46.6667 17.8233 46.6667 18.0001C46.6667 18.1769 46.5965 18.3465 46.4715 18.4715C46.3465 18.5965 46.1769 18.6667 46.0001 18.6667H45.3334C45.1566 18.6667 44.987 18.5965 44.862 18.4715C44.737 18.3465 44.6667 18.1769 44.6667 18.0001ZM57.3334 18.0001C57.3334 17.8233 57.4037 17.6537 57.5287 17.5287C57.6537 17.4037 57.8233 17.3334 58.0001 17.3334H58.6667C58.8436 17.3334 59.0131 17.4037 59.1382 17.5287C59.2632 17.6537 59.3334 17.8233 59.3334 18.0001C59.3334 18.1769 59.2632 18.3465 59.1382 18.4715C59.0131 18.5965 58.8436 18.6667 58.6667 18.6667H58.0001C57.8233 18.6667 57.6537 18.5965 57.5287 18.4715C57.4037 18.3465 57.3334 18.1769 57.3334 18.0001ZM48.1381 21.8621C48.2631 21.9871 48.3333 22.1566 48.3333 22.3334C48.3333 22.5102 48.2631 22.6797 48.1381 22.8047L47.1381 23.8047C47.0123 23.9262 46.8439 23.9934 46.6691 23.9919C46.4943 23.9903 46.3271 23.9202 46.2035 23.7966C46.0799 23.673 46.0098 23.5058 46.0083 23.331C46.0068 23.1562 46.074 22.9878 46.1954 22.8621L47.1954 21.8621C47.3204 21.7371 47.49 21.6669 47.6667 21.6669C47.8435 21.6669 48.0131 21.7371 48.1381 21.8621ZM55.8621 21.8621C55.9871 21.7371 56.1566 21.6669 56.3334 21.6669C56.5102 21.6669 56.6797 21.7371 56.8047 21.8621L57.8047 22.8621C57.9262 22.9878 57.9934 23.1562 57.9919 23.331C57.9903 23.5058 57.9202 23.673 57.7966 23.7966C57.673 23.9202 57.5058 23.9903 57.331 23.9919C57.1562 23.9934 56.9878 23.9262 56.8621 23.8047L55.8621 22.8047C55.7371 22.6797 55.6669 22.5102 55.6669 22.3334C55.6669 22.1566 55.7371 21.9871 55.8621 21.8621ZM52.0001 23.3334C52.1769 23.3334 52.3465 23.4037 52.4715 23.5287C52.5965 23.6537 52.6667 23.8233 52.6667 24.0001V24.6667C52.6667 24.8436 52.5965 25.0131 52.4715 25.1382C52.3465 25.2632 52.1769 25.3334 52.0001 25.3334C51.8233 25.3334 51.6537 25.2632 51.5287 25.1382C51.4037 25.0131 51.3334 24.8436 51.3334 24.6667V24.0001C51.3334 23.8233 51.4037 23.6537 51.5287 23.5287C51.6537 23.4037 51.8233 23.3334 52.0001 23.3334Z" fill="white"/>
<path d="M23.972 20.2167C24.108 19.8927 23.7193 19.6167 23.3933 19.7607C22.7416 20.0464 22.0376 20.1936 21.326 20.1927C18.536 20.1927 16.2747 17.9767 16.2747 15.2427C16.2744 14.3197 16.5366 13.4157 17.0307 12.636C17.22 12.3374 16.9927 11.924 16.646 12.012C13.9733 12.694 12 15.0754 12 17.908C12 21.2727 14.7833 24 18.2173 24C20.8173 24 23.044 22.4367 23.972 20.2167Z" stroke="white"/>
<path d="M20.4073 12.0688C20.054 11.8328 19.6327 12.2541 19.868 12.6074L20.288 13.2374C20.4586 13.4928 20.5496 13.793 20.5496 14.1001C20.5496 14.4072 20.4586 14.7074 20.288 14.9628L19.868 15.5928C19.6327 15.9461 20.0547 16.3674 20.408 16.1314L21.0373 15.7114C21.2927 15.5409 21.5929 15.4499 21.9 15.4499C22.2071 15.4499 22.5073 15.5409 22.7627 15.7114L23.3927 16.1314C23.746 16.3674 24.1673 15.9461 23.9313 15.5928L23.5113 14.9628C23.3408 14.7074 23.2498 14.4072 23.2498 14.1001C23.2498 13.793 23.3408 13.4928 23.5113 13.2374L23.9313 12.6074C24.1673 12.2541 23.746 11.8328 23.392 12.0688L22.7627 12.4888C22.5073 12.6593 22.2071 12.7503 21.9 12.7503C21.5929 12.7503 21.2927 12.6593 21.0373 12.4888L20.4073 12.0688Z" stroke="white"/>
</svg>
