<svg width="70" height="36" viewBox="0 0 70 36" fill="none" xmlns="http://www.w3.org/2000/svg">
<rect width="70" height="36" rx="18" fill="#474747"/>
<rect x="4" y="4" width="28" height="28" rx="14" fill="#919191"/>
<path d="M52 11.9999V11.3333M52 24.6666V23.9999M58 17.9999H58.6667M45.3334 17.9999H46M56.3334 13.6666L57.3334 12.6666M46.6667 23.3333L47.6667 22.3333M46.6667 12.6666L47.6667 13.6666M56.3334 22.3333L57.3334 23.3333" stroke="white" stroke-linecap="round"/>
<path d="M52 20.6666C53.4728 20.6666 54.6667 19.4727 54.6667 17.9999C54.6667 16.5272 53.4728 15.3333 52 15.3333C50.5273 15.3333 49.3334 16.5272 49.3334 17.9999C49.3334 19.4727 50.5273 20.6666 52 20.6666Z" stroke="white" stroke-linecap="round"/>
<path d="M23.972 20.2167C24.108 19.8927 23.7193 19.6167 23.3933 19.7607C22.7416 20.0464 22.0376 20.1936 21.326 20.1927C18.536 20.1927 16.2747 17.9767 16.2747 15.2427C16.2744 14.3197 16.5366 13.4157 17.0307 12.636C17.22 12.3374 16.9927 11.924 16.646 12.012C13.9733 12.694 12 15.0754 12 17.908C12 21.2727 14.7833 24 18.2173 24C20.8173 24 23.044 22.4367 23.972 20.2167Z" fill="white"/>
<path d="M20.4073 12.0688C20.054 11.8328 19.6327 12.2541 19.868 12.6074L20.288 13.2374C20.4586 13.4928 20.5496 13.793 20.5496 14.1001C20.5496 14.4072 20.4586 14.7074 20.288 14.9628L19.868 15.5928C19.6327 15.9461 20.0547 16.3674 20.408 16.1314L21.0373 15.7114C21.2927 15.5409 21.5929 15.4499 21.9 15.4499C22.2071 15.4499 22.5073 15.5409 22.7627 15.7114L23.3927 16.1314C23.746 16.3674 24.1673 15.9461 23.9313 15.5928L23.5113 14.9628C23.3408 14.7074 23.2498 14.4072 23.2498 14.1001C23.2498 13.793 23.3408 13.4928 23.5113 13.2374L23.9313 12.6074C24.1673 12.2541 23.746 11.8328 23.392 12.0688L22.7627 12.4888C22.5073 12.6593 22.2071 12.7503 21.9 12.7503C21.5929 12.7503 21.2927 12.6593 21.0373 12.4888L20.4073 12.0688Z" fill="white"/>
</svg>
